<svg xmlns="http://www.w3.org/2000/svg" viewBox="0 0 1080 1080" role="img" aria-label="Social post"><title>MDC — Social Post 1080</title><style>@import url('https://fonts.googleapis.com/css2?family=Anton&amp;family=Archivo:wght@600;700;800&amp;display=swap');</style><defs><path id="pi" fill-rule="evenodd" d="M2363 200 L176 200 L174 2166 L1267 2861 L2367 2166Z M1270 381 L349 383 L349 2059 L1275 2651 L2192 2058 L2192 384Z M686 580 L554 586 L554 1963 L755 2084 L763 826 L1233 1291 L1233 2397 L1282 2421 L1994 1961 L1994 583 L1736 580 L1277 1040 L820 585Z M1783 842 L1437 1184 L1439 2076 L1787 1854Z"/><path id="pg" d="M1099 586 L1273 796 L1451 612Z M772 838 L878 943 L872 2120 L766 2120Z"/><path id="pd" d=""/></defs><g><rect width="1080" height="1080" fill="#0A0B0D"/><rect x="0" y="0" width="1080" height="10" fill="#8BC63F"/>
<g transform="translate(60 60) scale(0.0327)"><g transform="translate(-129 -155)"><use href="#pi" fill="#F5F7F8"/><use href="#pg" fill="#8BC63F"/><use href="#pd" fill="#6AA62E"/></g></g>
<text x="60" y="640" font-family="Anton,Archivo,sans-serif" font-size="120" fill="#F5F7F8">ELEVATE</text>
<text x="60" y="760" font-family="Anton,Archivo,sans-serif" font-size="120" fill="#F5F7F8">YOUR <tspan fill="#8BC63F">GAME.</tspan></text>
<text x="60" y="850" font-family="Archivo,Arial,sans-serif" font-weight="700" font-size="34" letter-spacing="4" fill="#9aa1aa">EVERY BOX. EVERY MONTH.</text>
<rect x="60" y="930" width="360" height="70" rx="35" fill="#8BC63F"/><text x="240" y="977" text-anchor="middle" font-family="Archivo,Arial,sans-serif" font-weight="800" font-size="28" fill="#0A0B0D">Join the Club →</text></g></svg>